<?xml version="1.0" encoding="UTF-8" standalone="no"?>
<!DOCTYPE svg PUBLIC "-//W3C//DTD SVG 1.1//EN"
 "http://www.w3.org/Graphics/SVG/1.1/DTD/svg11.dtd">
<!-- Generated by graphviz version 2.43.0 (0)
 -->
<!-- Title: VAAPI_EGL_Interop Pages: 1 -->
<svg width="1762pt" height="1675pt"
 viewBox="0.00 0.00 1762.04 1674.74" xmlns="http://www.w3.org/2000/svg" xmlns:xlink="http://www.w3.org/1999/xlink">
<g id="graph0" class="graph" transform="scale(1 1) rotate(0) translate(4 1670.74)">
<title>VAAPI_EGL_Interop</title>
<polygon fill="white" stroke="transparent" points="-4,4 -4,-1670.74 1758.04,-1670.74 1758.04,4 -4,4"/>
<text text-anchor="middle" x="877.02" y="-1643.54" font-family="Noto Sans" font-size="24.00" fill="#304010">data and program flow of vaapi_egl_interop_example.c</text>
<g id="clust1" class="cluster">
<title>cluster_ffmpeg_init</title>
<polygon fill="#f0fff0" stroke="#304010" points="897.04,-907.74 897.04,-1624.74 1337.04,-1624.74 1337.04,-907.74 897.04,-907.74"/>
<text text-anchor="middle" x="984.54" y="-1607.94" font-family="Noto Sans" font-size="16.00" fill="#304010">FFmpeg initialization</text>
</g>
<g id="clust2" class="cluster">
<title>cluster_egl_init</title>
<polygon fill="#f0fff0" stroke="#304010" points="22.04,-602 22.04,-1495.74 553.04,-1495.74 553.04,-602 22.04,-602"/>
<text text-anchor="middle" x="178.04" y="-1478.94" font-family="Noto Sans" font-size="16.00" fill="#304010">Window, EGL and OpenGL initialization</text>
</g>
<g id="clust3" class="cluster">
<title>cluster_main_loop</title>
<polygon fill="#f0fff0" stroke="#304010" points="1345.04,-8 1345.04,-1057.74 1746.04,-1057.74 1746.04,-8 1345.04,-8"/>
<text text-anchor="middle" x="1699.54" y="-1040.94" font-family="Noto Sans" font-size="16.00" fill="#304010">main loop</text>
</g>
<!-- open -->
<g id="node1" class="node">
<title>open</title>
<ellipse fill="#608020" stroke="black" cx="801.04" cy="-1443.74" rx="32.49" ry="18"/>
<text text-anchor="middle" x="801.04" y="-1440.04" font-family="Noto Sans" font-size="14.00" fill="white">open</text>
</g>
<!-- fd -->
<g id="node33" class="node">
<title>fd</title>
<text text-anchor="middle" x="801.04" y="-1368.04" font-family="Noto Sans" font-size="14.00">fd</text>
</g>
<!-- open&#45;&gt;fd -->
<g id="edge2" class="edge">
<title>open&#45;&gt;fd</title>
<path fill="none" stroke="black" d="M801.04,-1425.44C801.04,-1414.5 801.04,-1400.42 801.04,-1389.57"/>
<polygon fill="black" stroke="black" points="804.54,-1389.36 801.04,-1379.36 797.54,-1389.36 804.54,-1389.36"/>
</g>
<!-- XOpenDisplay -->
<g id="node2" class="node">
<title>XOpenDisplay</title>
<ellipse fill="#608020" stroke="black" cx="277.04" cy="-1443.74" rx="71.49" ry="18"/>
<text text-anchor="middle" x="277.04" y="-1440.04" font-family="Noto Sans" font-size="14.00" fill="white">XOpenDisplay</text>
</g>
<!-- Display -->
<g id="node34" class="node">
<title>Display</title>
<text text-anchor="middle" x="277.04" y="-1368.04" font-family="Noto Sans" font-size="14.00">Display</text>
</g>
<!-- XOpenDisplay&#45;&gt;Display -->
<g id="edge25" class="edge">
<title>XOpenDisplay&#45;&gt;Display</title>
<path fill="none" stroke="black" d="M277.04,-1425.44C277.04,-1414.5 277.04,-1400.42 277.04,-1389.57"/>
<polygon fill="black" stroke="black" points="280.54,-1389.36 277.04,-1379.36 273.54,-1389.36 280.54,-1389.36"/>
</g>
<!-- vaGetDisplay -->
<g id="node3" class="node">
<title>vaGetDisplay</title>
<ellipse fill="#608020" stroke="black" cx="628.04" cy="-1299.74" rx="66.89" ry="18"/>
<text text-anchor="middle" x="628.04" y="-1296.04" font-family="Noto Sans" font-size="14.00" fill="white">vaGetDisplay</text>
</g>
<!-- VADisplay -->
<g id="node35" class="node">
<title>VADisplay</title>
<text text-anchor="middle" x="938.04" y="-1224.04" font-family="Noto Sans" font-size="14.00">VADisplay</text>
</g>
<!-- vaGetDisplay&#45;&gt;VADisplay -->
<g id="edge6" class="edge">
<title>vaGetDisplay&#45;&gt;VADisplay</title>
<path fill="none" stroke="black" d="M677.5,-1287.57C739.14,-1273.65 843.17,-1250.16 899.32,-1237.48"/>
<polygon fill="black" stroke="black" points="900.24,-1240.86 909.22,-1235.25 898.7,-1234.04 900.24,-1240.86"/>
</g>
<!-- vaGetDisplayDRM -->
<g id="node4" class="node">
<title>vaGetDisplayDRM</title>
<ellipse fill="#608020" stroke="black" cx="801.04" cy="-1299.74" rx="87.99" ry="18"/>
<text text-anchor="middle" x="801.04" y="-1296.04" font-family="Noto Sans" font-size="14.00" fill="white">vaGetDisplayDRM</text>
</g>
<!-- vaGetDisplayDRM&#45;&gt;VADisplay -->
<g id="edge4" class="edge">
<title>vaGetDisplayDRM&#45;&gt;VADisplay</title>
<path fill="none" stroke="black" d="M832.13,-1282.86C857.71,-1269.78 893.33,-1251.58 916.04,-1239.98"/>
<polygon fill="black" stroke="black" points="917.89,-1242.97 925.2,-1235.3 914.7,-1236.73 917.89,-1242.97"/>
</g>
<!-- vaInitialize -->
<g id="node5" class="node">
<title>vaInitialize</title>
<ellipse fill="#608020" stroke="black" cx="830.04" cy="-1155.74" rx="56.59" ry="18"/>
<text text-anchor="middle" x="830.04" y="-1152.04" font-family="Noto Sans" font-size="14.00" fill="white">vaInitialize</text>
</g>
<!-- avformat_open_input -->
<g id="node6" class="node">
<title>avformat_open_input</title>
<ellipse fill="#608020" stroke="black" cx="1211.04" cy="-1521.74" rx="101.28" ry="18"/>
<text text-anchor="middle" x="1211.04" y="-1518.04" font-family="Noto Sans" font-size="14.00" fill="white">avformat_open_input</text>
</g>
<!-- avformat_find_stream_info -->
<g id="node7" class="node">
<title>avformat_find_stream_info</title>
<ellipse fill="#608020" stroke="black" cx="1166.04" cy="-1371.74" rx="123.48" ry="18"/>
<text text-anchor="middle" x="1166.04" y="-1368.04" font-family="Noto Sans" font-size="14.00" fill="white">avformat_find_stream_info</text>
</g>
<!-- avformat_open_input&#45;&gt;avformat_find_stream_info -->
<!-- AVFormatContext -->
<g id="node38" class="node">
<title>AVFormatContext</title>
<text text-anchor="middle" x="1271.04" y="-1440.04" font-family="Noto Sans" font-size="14.00">AVFormatContext</text>
</g>
<!-- avformat_open_input&#45;&gt;AVFormatContext -->
<g id="edge9" class="edge">
<title>avformat_open_input&#45;&gt;AVFormatContext</title>
<path fill="none" stroke="black" d="M1224.35,-1503.87C1234.8,-1490.64 1249.2,-1472.4 1259.24,-1459.69"/>
<polygon fill="black" stroke="black" points="1262.21,-1461.58 1265.65,-1451.56 1256.71,-1457.24 1262.21,-1461.58"/>
</g>
<!-- av_find_best_stream -->
<g id="node8" class="node">
<title>av_find_best_stream</title>
<ellipse fill="#608020" stroke="black" cx="1212.04" cy="-1299.74" rx="96.68" ry="18"/>
<text text-anchor="middle" x="1212.04" y="-1296.04" font-family="Noto Sans" font-size="14.00" fill="white">av_find_best_stream</text>
</g>
<!-- avformat_find_stream_info&#45;&gt;av_find_best_stream -->
<!-- AVCodec -->
<g id="node39" class="node">
<title>AVCodec</title>
<text text-anchor="middle" x="1243.04" y="-1224.04" font-family="Noto Sans" font-size="14.00">AVCodec</text>
</g>
<!-- av_find_best_stream&#45;&gt;AVCodec -->
<g id="edge14" class="edge">
<title>av_find_best_stream&#45;&gt;AVCodec</title>
<path fill="none" stroke="black" d="M1219.7,-1281.44C1224.7,-1270.15 1231.18,-1255.52 1236.04,-1244.54"/>
<polygon fill="black" stroke="black" points="1239.26,-1245.93 1240.1,-1235.36 1232.86,-1243.09 1239.26,-1245.93"/>
</g>
<!-- avcodec_alloc_context3 -->
<g id="node9" class="node">
<title>avcodec_alloc_context3</title>
<ellipse fill="#608020" stroke="black" cx="1199.04" cy="-1155.74" rx="109.68" ry="18"/>
<text text-anchor="middle" x="1199.04" y="-1152.04" font-family="Noto Sans" font-size="14.00" fill="white">avcodec_alloc_context3</text>
</g>
<!-- AVCodecContext -->
<g id="node40" class="node">
<title>AVCodecContext</title>
<text text-anchor="middle" x="1175.04" y="-1080.04" font-family="Noto Sans" font-size="14.00">AVCodecContext</text>
</g>
<!-- avcodec_alloc_context3&#45;&gt;AVCodecContext -->
<g id="edge16" class="edge">
<title>avcodec_alloc_context3&#45;&gt;AVCodecContext</title>
<path fill="none" stroke="black" d="M1193.11,-1137.44C1189.27,-1126.26 1184.32,-1111.82 1180.57,-1100.88"/>
<polygon fill="black" stroke="black" points="1183.86,-1099.69 1177.31,-1091.36 1177.24,-1101.96 1183.86,-1099.69"/>
</g>
<!-- avcodec_parameters_to_context -->
<g id="node10" class="node">
<title>avcodec_parameters_to_context</title>
<ellipse fill="#608020" stroke="black" cx="1182.04" cy="-1005.74" rx="146.77" ry="18"/>
<text text-anchor="middle" x="1182.04" y="-1002.04" font-family="Noto Sans" font-size="14.00" fill="white">avcodec_parameters_to_context</text>
</g>
<!-- avcodec_open2 -->
<g id="node13" class="node">
<title>avcodec_open2</title>
<ellipse fill="#608020" stroke="black" cx="1182.04" cy="-933.74" rx="76.09" ry="18"/>
<text text-anchor="middle" x="1182.04" y="-930.04" font-family="Noto Sans" font-size="14.00" fill="white">avcodec_open2</text>
</g>
<!-- avcodec_parameters_to_context&#45;&gt;avcodec_open2 -->
<!-- av_hwdevice_ctx_alloc -->
<g id="node11" class="node">
<title>av_hwdevice_ctx_alloc</title>
<ellipse fill="#608020" stroke="black" cx="1092.04" cy="-1227.74" rx="103.98" ry="18"/>
<text text-anchor="middle" x="1092.04" y="-1224.04" font-family="Noto Sans" font-size="14.00" fill="white">av_hwdevice_ctx_alloc</text>
</g>
<!-- AVVAAPIDeviceContext -->
<g id="node41" class="node">
<title>AVVAAPIDeviceContext</title>
<text text-anchor="middle" x="988.04" y="-1159.54" font-family="Noto Sans" font-size="14.00">AVBufferRef</text>
<text text-anchor="middle" x="988.04" y="-1144.54" font-family="Noto Sans" font-size="14.00">&lt;AVVAAPIDeviceContext&gt;</text>
</g>
<!-- av_hwdevice_ctx_alloc&#45;&gt;AVVAAPIDeviceContext -->
<g id="edge19" class="edge">
<title>av_hwdevice_ctx_alloc&#45;&gt;AVVAAPIDeviceContext</title>
<path fill="none" stroke="black" d="M1067.39,-1210.15C1052.39,-1200.05 1033.14,-1187.1 1017.36,-1176.48"/>
<polygon fill="black" stroke="black" points="1019.25,-1173.53 1009,-1170.85 1015.34,-1179.34 1019.25,-1173.53"/>
</g>
<!-- av_hwdevice_ctx_init -->
<g id="node12" class="node">
<title>av_hwdevice_ctx_init</title>
<ellipse fill="#608020" stroke="black" cx="1004.04" cy="-1083.74" rx="98.58" ry="18"/>
<text text-anchor="middle" x="1004.04" y="-1080.04" font-family="Noto Sans" font-size="14.00" fill="white">av_hwdevice_ctx_init</text>
</g>
<!-- avcodec_send_packet -->
<g id="node23" class="node">
<title>avcodec_send_packet</title>
<ellipse fill="#608020" stroke="black" cx="1455.04" cy="-861.74" rx="102.08" ry="18"/>
<text text-anchor="middle" x="1455.04" y="-858.04" font-family="Noto Sans" font-size="14.00" fill="white">avcodec_send_packet</text>
</g>
<!-- avcodec_open2&#45;&gt;avcodec_send_packet -->
<!-- XCreateWindow -->
<g id="node14" class="node">
<title>XCreateWindow</title>
<ellipse fill="#608020" stroke="black" cx="109.04" cy="-1299.74" rx="79.09" ry="18"/>
<text text-anchor="middle" x="109.04" y="-1296.04" font-family="Noto Sans" font-size="14.00" fill="white">XCreateWindow</text>
</g>
<!-- Window -->
<g id="node42" class="node">
<title>Window</title>
<text text-anchor="middle" x="57.04" y="-1152.04" font-family="Noto Sans" font-size="14.00">Window</text>
</g>
<!-- XCreateWindow&#45;&gt;Window -->
<g id="edge27" class="edge">
<title>XCreateWindow&#45;&gt;Window</title>
<path fill="none" stroke="black" d="M102.77,-1281.61C92.65,-1253.99 72.88,-1199.99 62.98,-1172.96"/>
<polygon fill="black" stroke="black" points="66.23,-1171.65 59.5,-1163.47 59.65,-1174.06 66.23,-1171.65"/>
</g>
<!-- eglGetDisplay -->
<g id="node15" class="node">
<title>eglGetDisplay</title>
<ellipse fill="#608020" stroke="black" cx="277.04" cy="-1299.74" rx="70.69" ry="18"/>
<text text-anchor="middle" x="277.04" y="-1296.04" font-family="Noto Sans" font-size="14.00" fill="white">eglGetDisplay</text>
</g>
<!-- EGLDisplay -->
<g id="node36" class="node">
<title>EGLDisplay</title>
<text text-anchor="middle" x="187.04" y="-1224.04" font-family="Noto Sans" font-size="14.00">EGLDisplay</text>
</g>
<!-- eglGetDisplay&#45;&gt;EGLDisplay -->
<g id="edge29" class="edge">
<title>eglGetDisplay&#45;&gt;EGLDisplay</title>
<path fill="none" stroke="black" d="M256.16,-1282.5C240.34,-1270.2 218.86,-1253.49 204.07,-1241.99"/>
<polygon fill="black" stroke="black" points="205.87,-1238.96 195.83,-1235.58 201.58,-1244.48 205.87,-1238.96"/>
</g>
<!-- eglInitialize -->
<g id="node16" class="node">
<title>eglInitialize</title>
<ellipse fill="#608020" stroke="black" cx="252.04" cy="-1155.74" rx="60.39" ry="18"/>
<text text-anchor="middle" x="252.04" y="-1152.04" font-family="Noto Sans" font-size="14.00" fill="white">eglInitialize</text>
</g>
<!-- eglBindAPI -->
<g id="node17" class="node">
<title>eglBindAPI</title>
<ellipse fill="#608020" stroke="black" cx="303.04" cy="-1083.74" rx="57.69" ry="18"/>
<text text-anchor="middle" x="303.04" y="-1080.04" font-family="Noto Sans" font-size="14.00" fill="white">eglBindAPI</text>
</g>
<!-- eglInitialize&#45;&gt;eglBindAPI -->
<g id="edge31" class="edge">
<title>eglInitialize&#45;&gt;eglBindAPI</title>
<path fill="none" stroke="black" d="M264.38,-1137.8C270.52,-1129.37 278.06,-1119.02 284.85,-1109.71"/>
<polygon fill="black" stroke="black" points="287.75,-1111.67 290.81,-1101.53 282.09,-1107.55 287.75,-1111.67"/>
</g>
<!-- eglChooseConfig -->
<g id="node18" class="node">
<title>eglChooseConfig</title>
<ellipse fill="#608020" stroke="black" cx="156.04" cy="-1005.74" rx="83.69" ry="18"/>
<text text-anchor="middle" x="156.04" y="-1002.04" font-family="Noto Sans" font-size="14.00" fill="white">eglChooseConfig</text>
</g>
<!-- eglBindAPI&#45;&gt;eglChooseConfig -->
<!-- eglCreateContext -->
<g id="node20" class="node">
<title>eglCreateContext</title>
<ellipse fill="#608020" stroke="black" cx="362.04" cy="-1005.74" rx="85.59" ry="18"/>
<text text-anchor="middle" x="362.04" y="-1002.04" font-family="Noto Sans" font-size="14.00" fill="white">eglCreateContext</text>
</g>
<!-- eglBindAPI&#45;&gt;eglCreateContext -->
<!-- EGLConfig -->
<g id="node45" class="node">
<title>EGLConfig</title>
<text text-anchor="middle" x="154.04" y="-930.04" font-family="Noto Sans" font-size="14.00">EGLConfig</text>
</g>
<!-- eglChooseConfig&#45;&gt;EGLConfig -->
<g id="edge35" class="edge">
<title>eglChooseConfig&#45;&gt;EGLConfig</title>
<path fill="none" stroke="black" d="M155.54,-987.44C155.23,-976.5 154.83,-962.42 154.52,-951.57"/>
<polygon fill="black" stroke="black" points="158.01,-951.26 154.23,-941.36 151.01,-951.46 158.01,-951.26"/>
</g>
<!-- eglCreateWindowSurface -->
<g id="node19" class="node">
<title>eglCreateWindowSurface</title>
<ellipse fill="#608020" stroke="black" cx="151.04" cy="-861.74" rx="118.88" ry="18"/>
<text text-anchor="middle" x="151.04" y="-858.04" font-family="Noto Sans" font-size="14.00" fill="white">eglCreateWindowSurface</text>
</g>
<!-- EGLSurface -->
<g id="node43" class="node">
<title>EGLSurface</title>
<text text-anchor="middle" x="184.04" y="-786.04" font-family="Noto Sans" font-size="14.00">EGLSurface</text>
</g>
<!-- eglCreateWindowSurface&#45;&gt;EGLSurface -->
<g id="edge39" class="edge">
<title>eglCreateWindowSurface&#45;&gt;EGLSurface</title>
<path fill="none" stroke="black" d="M159.2,-843.44C164.52,-832.15 171.41,-817.52 176.59,-806.54"/>
<polygon fill="black" stroke="black" points="179.82,-807.9 180.92,-797.36 173.49,-804.92 179.82,-807.9"/>
</g>
<!-- EGLContext -->
<g id="node44" class="node">
<title>EGLContext</title>
<text text-anchor="middle" x="334.04" y="-858.04" font-family="Noto Sans" font-size="14.00">EGLContext</text>
</g>
<!-- eglCreateContext&#45;&gt;EGLContext -->
<g id="edge43" class="edge">
<title>eglCreateContext&#45;&gt;EGLContext</title>
<path fill="none" stroke="black" d="M358.66,-987.61C353.24,-960.12 342.66,-906.47 337.31,-879.32"/>
<polygon fill="black" stroke="black" points="340.73,-878.6 335.36,-869.47 333.87,-879.95 340.73,-878.6"/>
</g>
<!-- eglMakeCurrent -->
<g id="node21" class="node">
<title>eglMakeCurrent</title>
<ellipse fill="#608020" stroke="black" cx="212.04" cy="-717.74" rx="81.49" ry="18"/>
<text text-anchor="middle" x="212.04" y="-714.04" font-family="Noto Sans" font-size="14.00" fill="white">eglMakeCurrent</text>
</g>
<!-- gl_init -->
<g id="node30" class="node">
<title>gl_init</title>
<ellipse fill="#608020" stroke="black" cx="212.04" cy="-636.87" rx="110.12" ry="26.74"/>
<text text-anchor="middle" x="212.04" y="-640.67" font-family="Noto Sans" font-size="14.00" fill="white">OpenGL initialization</text>
<text text-anchor="middle" x="212.04" y="-625.67" font-family="Noto Sans" font-size="14.00" fill="white">(create shaders etc.)</text>
</g>
<!-- eglMakeCurrent&#45;&gt;gl_init -->
<g id="edge46" class="edge">
<title>eglMakeCurrent&#45;&gt;gl_init</title>
<path fill="none" stroke="black" d="M212.04,-699.63C212.04,-692.14 212.04,-683.05 212.04,-674.17"/>
<polygon fill="black" stroke="black" points="215.54,-673.95 212.04,-663.95 208.54,-673.95 215.54,-673.95"/>
</g>
<!-- av_read_frame -->
<g id="node22" class="node">
<title>av_read_frame</title>
<ellipse fill="#608020" stroke="black" cx="1439.04" cy="-1005.74" rx="71.49" ry="18"/>
<text text-anchor="middle" x="1439.04" y="-1002.04" font-family="Noto Sans" font-size="14.00" fill="white">av_read_frame</text>
</g>
<!-- AVPacket -->
<g id="node49" class="node">
<title>AVPacket</title>
<text text-anchor="middle" x="1447.04" y="-930.04" font-family="Noto Sans" font-size="14.00">AVPacket</text>
</g>
<!-- av_read_frame&#45;&gt;AVPacket -->
<g id="edge49" class="edge">
<title>av_read_frame&#45;&gt;AVPacket</title>
<path fill="none" stroke="black" d="M1441.02,-987.44C1442.27,-976.5 1443.87,-962.42 1445.11,-951.57"/>
<polygon fill="black" stroke="black" points="1448.62,-951.7 1446.28,-941.36 1441.67,-950.9 1448.62,-951.7"/>
</g>
<!-- avcodec_receive_frame -->
<g id="node24" class="node">
<title>avcodec_receive_frame</title>
<ellipse fill="#608020" stroke="black" cx="1462.04" cy="-789.74" rx="108.58" ry="18"/>
<text text-anchor="middle" x="1462.04" y="-786.04" font-family="Noto Sans" font-size="14.00" fill="white">avcodec_receive_frame</text>
</g>
<!-- avcodec_send_packet&#45;&gt;avcodec_receive_frame -->
<g id="edge52" class="edge">
<title>avcodec_send_packet&#45;&gt;avcodec_receive_frame</title>
<path fill="none" stroke="black" stroke-dasharray="5,2" d="M1456.77,-843.44C1457.54,-835.72 1458.47,-826.45 1459.33,-817.85"/>
<polygon fill="black" stroke="black" points="1462.82,-818.14 1460.33,-807.84 1455.85,-817.45 1462.82,-818.14"/>
</g>
<!-- AVFrame -->
<g id="node50" class="node">
<title>AVFrame</title>
<text text-anchor="middle" x="1467.04" y="-714.04" font-family="Noto Sans" font-size="14.00">AVFrame</text>
</g>
<!-- avcodec_receive_frame&#45;&gt;AVFrame -->
<g id="edge54" class="edge">
<title>avcodec_receive_frame&#45;&gt;AVFrame</title>
<path fill="none" stroke="black" d="M1463.27,-771.44C1464.06,-760.5 1465.06,-746.42 1465.84,-735.57"/>
<polygon fill="black" stroke="black" points="1469.34,-735.59 1466.57,-725.36 1462.36,-735.09 1469.34,-735.59"/>
</g>
<!-- glGenTextures -->
<g id="node25" class="node">
<title>glGenTextures</title>
<ellipse fill="#608020" stroke="black" cx="1426.04" cy="-310" rx="73.39" ry="18"/>
<text text-anchor="middle" x="1426.04" y="-306.3" font-family="Noto Sans" font-size="14.00" fill="white">glGenTextures</text>
</g>
<!-- gl_texture_1 -->
<g id="node48" class="node">
<title>gl_texture_1</title>
<text text-anchor="middle" x="1459.04" y="-244.8" font-family="Noto Sans" font-size="14.00">2x GLuint&lt;GL_TEXTURE_2D&gt;</text>
<text text-anchor="middle" x="1459.04" y="-229.8" font-family="Noto Sans" font-size="14.00">(empty)</text>
</g>
<!-- glGenTextures&#45;&gt;gl_texture_1 -->
<g id="edge64" class="edge">
<title>glGenTextures&#45;&gt;gl_texture_1</title>
<path fill="none" stroke="black" d="M1434.37,-292.09C1438.35,-284.01 1443.18,-274.2 1447.51,-265.41"/>
<polygon fill="black" stroke="black" points="1450.67,-266.92 1451.94,-256.4 1444.39,-263.83 1450.67,-266.92"/>
</g>
<!-- vaExportSurfaceHandle -->
<g id="node26" class="node">
<title>vaExportSurfaceHandle</title>
<ellipse fill="#608020" stroke="black" cx="1595.04" cy="-484" rx="110.48" ry="18"/>
<text text-anchor="middle" x="1595.04" y="-480.3" font-family="Noto Sans" font-size="14.00" fill="white">vaExportSurfaceHandle</text>
</g>
<!-- VADRMPRIMESurfaceDescriptor -->
<g id="node52" class="node">
<title>VADRMPRIMESurfaceDescriptor</title>
<text text-anchor="middle" x="1604.04" y="-418.8" font-family="Noto Sans" font-size="14.00">VADRMPRIMESurfaceDescriptor</text>
</g>
<!-- vaExportSurfaceHandle&#45;&gt;VADRMPRIMESurfaceDescriptor -->
<g id="edge59" class="edge">
<title>vaExportSurfaceHandle&#45;&gt;VADRMPRIMESurfaceDescriptor</title>
<path fill="none" stroke="black" d="M1597.64,-465.79C1598.87,-457.67 1600.33,-448.03 1601.54,-440"/>
<polygon fill="black" stroke="black" points="1605.01,-440.47 1603.05,-430.06 1598.09,-439.42 1605.01,-440.47"/>
</g>
<!-- vaSyncSurface -->
<g id="node27" class="node">
<title>vaSyncSurface</title>
<ellipse fill="#608020" stroke="black" cx="1595.04" cy="-556" rx="72.29" ry="18"/>
<text text-anchor="middle" x="1595.04" y="-552.3" font-family="Noto Sans" font-size="14.00" fill="white">vaSyncSurface</text>
</g>
<!-- vaSyncSurface&#45;&gt;vaExportSurfaceHandle -->
<!-- eglCreateImageKHR -->
<g id="node28" class="node">
<title>eglCreateImageKHR</title>
<ellipse fill="#608020" stroke="black" cx="1628.04" cy="-310" rx="110.48" ry="18"/>
<text text-anchor="middle" x="1628.04" y="-306.3" font-family="Noto Sans" font-size="14.00" fill="white">2x eglCreateImageKHR</text>
</g>
<!-- EGLImage -->
<g id="node54" class="node">
<title>EGLImage</title>
<text text-anchor="middle" x="1621.04" y="-237.3" font-family="Noto Sans" font-size="14.00">2x EGLImage</text>
</g>
<!-- eglCreateImageKHR&#45;&gt;EGLImage -->
<g id="edge63" class="edge">
<title>eglCreateImageKHR&#45;&gt;EGLImage</title>
<path fill="none" stroke="black" d="M1626.24,-291.75C1625.18,-281.6 1623.84,-268.84 1622.79,-258.78"/>
<polygon fill="black" stroke="black" points="1626.24,-258.11 1621.72,-248.53 1619.28,-258.84 1626.24,-258.11"/>
</g>
<!-- glEGLImageTargetTexture2DOES -->
<g id="node29" class="node">
<title>glEGLImageTargetTexture2DOES</title>
<ellipse fill="#608020" stroke="black" cx="1545.04" cy="-172" rx="163.27" ry="18"/>
<text text-anchor="middle" x="1545.04" y="-168.3" font-family="Noto Sans" font-size="14.00" fill="white">2x glEGLImageTargetTexture2DOES</text>
</g>
<!-- gl_texture_2 -->
<g id="node55" class="node">
<title>gl_texture_2</title>
<text text-anchor="middle" x="1545.04" y="-106.8" font-family="Noto Sans" font-size="14.00">2x GLuint&lt;GL_TEXTURE_2D&gt;</text>
<text text-anchor="middle" x="1545.04" y="-91.8" font-family="Noto Sans" font-size="14.00">(with data)</text>
</g>
<!-- glEGLImageTargetTexture2DOES&#45;&gt;gl_texture_2 -->
<g id="edge67" class="edge">
<title>glEGLImageTargetTexture2DOES&#45;&gt;gl_texture_2</title>
<path fill="none" stroke="black" d="M1545.04,-153.75C1545.04,-146 1545.04,-136.73 1545.04,-128.31"/>
<polygon fill="black" stroke="black" points="1548.54,-128.26 1545.04,-118.26 1541.54,-128.26 1548.54,-128.26"/>
</g>
<!-- glDrawArrays -->
<g id="node31" class="node">
<title>glDrawArrays</title>
<ellipse fill="#608020" stroke="black" cx="1545.04" cy="-34" rx="90.98" ry="18"/>
<text text-anchor="middle" x="1545.04" y="-30.3" font-family="Noto Sans" font-size="14.00" fill="white">draw with OpenGL</text>
</g>
<!-- devnode -->
<g id="node32" class="node">
<title>devnode</title>
<text text-anchor="middle" x="801.04" y="-1518.04" font-family="Noto Sans" font-size="14.00">DRI Device Node</text>
</g>
<!-- devnode&#45;&gt;open -->
<g id="edge1" class="edge">
<title>devnode&#45;&gt;open</title>
<path fill="none" stroke="black" d="M801.04,-1514C801.04,-1504.64 801.04,-1487.18 801.04,-1472.13"/>
<polygon fill="black" stroke="black" points="804.54,-1471.75 801.04,-1461.75 797.54,-1471.75 804.54,-1471.75"/>
</g>
<!-- fd&#45;&gt;vaGetDisplayDRM -->
<g id="edge3" class="edge">
<title>fd&#45;&gt;vaGetDisplayDRM</title>
<path fill="none" stroke="black" d="M801.04,-1364.03C801.04,-1355.71 801.04,-1341.03 801.04,-1327.9"/>
<polygon fill="black" stroke="black" points="804.54,-1327.86 801.04,-1317.86 797.54,-1327.86 804.54,-1327.86"/>
</g>
<!-- Display&#45;&gt;vaGetDisplay -->
<g id="edge5" class="edge">
<title>Display&#45;&gt;vaGetDisplay</title>
<path fill="none" stroke="black" d="M301.84,-1366.46C350.78,-1357.92 463.19,-1337.85 557.04,-1317.74 561.41,-1316.8 565.92,-1315.8 570.46,-1314.77"/>
<polygon fill="black" stroke="black" points="571.41,-1318.14 580.37,-1312.49 569.84,-1311.32 571.41,-1318.14"/>
</g>
<!-- Display&#45;&gt;XCreateWindow -->
<g id="edge26" class="edge">
<title>Display&#45;&gt;XCreateWindow</title>
<path fill="none" stroke="black" d="M261.23,-1364.15C237.12,-1354.11 190.21,-1334.56 154.81,-1319.81"/>
<polygon fill="black" stroke="black" points="155.74,-1316.41 145.16,-1315.79 153.04,-1322.87 155.74,-1316.41"/>
</g>
<!-- Display&#45;&gt;eglGetDisplay -->
<g id="edge28" class="edge">
<title>Display&#45;&gt;eglGetDisplay</title>
<path fill="none" stroke="black" d="M277.04,-1364.03C277.04,-1355.71 277.04,-1341.03 277.04,-1327.9"/>
<polygon fill="black" stroke="black" points="280.54,-1327.86 277.04,-1317.86 273.54,-1327.86 280.54,-1327.86"/>
</g>
<!-- VADisplay&#45;&gt;vaInitialize -->
<g id="edge7" class="edge">
<title>VADisplay&#45;&gt;vaInitialize</title>
<path fill="none" stroke="black" d="M927.68,-1220.03C912.77,-1210.36 884.59,-1192.09 862.32,-1177.66"/>
<polygon fill="black" stroke="black" points="864.1,-1174.65 853.81,-1172.15 860.29,-1180.52 864.1,-1174.65"/>
</g>
<!-- VADisplay&#45;&gt;AVVAAPIDeviceContext -->
<g id="edge20" class="edge">
<title>VADisplay&#45;&gt;AVVAAPIDeviceContext</title>
<path fill="none" stroke="black" stroke-dasharray="5,2" d="M942.83,-1220.03C949.51,-1210.68 961.94,-1193.28 972.08,-1179.09"/>
<polygon fill="black" stroke="black" points="975.06,-1180.94 978.02,-1170.76 969.36,-1176.87 975.06,-1180.94"/>
</g>
<!-- EGLDisplay&#45;&gt;eglInitialize -->
<g id="edge30" class="edge">
<title>EGLDisplay&#45;&gt;eglInitialize</title>
<path fill="none" stroke="black" d="M193.27,-1220.03C201.64,-1211.02 216.93,-1194.54 229.83,-1180.66"/>
<polygon fill="black" stroke="black" points="232.44,-1182.99 236.68,-1173.28 227.31,-1178.23 232.44,-1182.99"/>
</g>
<!-- EGLDisplay&#45;&gt;eglChooseConfig -->
<g id="edge33" class="edge">
<title>EGLDisplay&#45;&gt;eglChooseConfig</title>
<path fill="none" stroke="black" d="M180.84,-1219.93C159.09,-1195.96 87.3,-1116.19 82.04,-1101.74 76.56,-1086.71 75.1,-1080.16 82.04,-1065.74 89.48,-1050.29 103.15,-1037.64 116.73,-1028.06"/>
<polygon fill="black" stroke="black" points="118.72,-1030.94 125.12,-1022.5 114.85,-1025.11 118.72,-1030.94"/>
</g>
<!-- EGLDisplay&#45;&gt;eglCreateWindowSurface -->
<g id="edge36" class="edge">
<title>EGLDisplay&#45;&gt;eglCreateWindowSurface</title>
<path fill="none" stroke="black" d="M172.31,-1220.16C154.84,-1211.69 125.85,-1195.44 108.04,-1173.74 97.04,-1160.34 100.59,-1153.34 93.04,-1137.74 85.06,-1121.27 79.58,-1118.84 73.04,-1101.74 65.87,-1083.01 65.27,-1077.67 63.04,-1057.74 59.57,-1026.82 54.73,-1017.72 63.04,-987.74 74.11,-947.78 86.49,-941.16 111.04,-907.74 116.09,-900.87 121.98,-893.81 127.66,-887.38"/>
<polygon fill="black" stroke="black" points="130.56,-889.39 134.67,-879.63 125.37,-884.69 130.56,-889.39"/>
</g>
<!-- EGLDisplay&#45;&gt;eglCreateContext -->
<g id="edge41" class="edge">
<title>EGLDisplay&#45;&gt;eglCreateContext</title>
<path fill="none" stroke="black" d="M217.62,-1220.17C246.64,-1212.75 290.28,-1198.36 321.04,-1173.74 351.26,-1149.55 358.64,-1138.73 370.04,-1101.74 376.86,-1079.58 373.82,-1053.24 369.67,-1033.91"/>
<polygon fill="black" stroke="black" points="373.03,-1032.89 367.31,-1023.97 366.22,-1034.51 373.03,-1032.89"/>
</g>
<!-- EGLDisplay&#45;&gt;eglCreateImageKHR -->
<g id="edge62" class="edge">
<title>EGLDisplay&#45;&gt;eglCreateImageKHR</title>
<path fill="none" stroke="black" d="M149.99,-1225.28C112.03,-1221.71 54.04,-1210.17 21.04,-1173.74 -6.12,-1143.76 2.04,-1125.19 2.04,-1084.74 2.04,-1084.74 2.04,-1084.74 2.04,-421.5 2.04,-337.67 1424.64,-336.48 1508.04,-328 1518.62,-326.92 1529.69,-325.61 1540.66,-324.2"/>
<polygon fill="black" stroke="black" points="1541.23,-327.65 1550.69,-322.87 1540.31,-320.71 1541.23,-327.65"/>
</g>
<!-- filename -->
<g id="node37" class="node">
<title>filename</title>
<text text-anchor="middle" x="1211.04" y="-1579.54" font-family="Noto Sans" font-size="14.00">Input File Name</text>
</g>
<!-- filename&#45;&gt;avformat_open_input -->
<g id="edge8" class="edge">
<title>filename&#45;&gt;avformat_open_input</title>
<path fill="none" stroke="black" d="M1211.04,-1575.41C1211.04,-1569.16 1211.04,-1559.48 1211.04,-1550.11"/>
<polygon fill="black" stroke="black" points="1214.54,-1549.87 1211.04,-1539.87 1207.54,-1549.87 1214.54,-1549.87"/>
</g>
<!-- AVFormatContext&#45;&gt;avformat_find_stream_info -->
<g id="edge11" class="edge">
<title>AVFormatContext&#45;&gt;avformat_find_stream_info</title>
<path fill="none" stroke="black" d="M1260.97,-1436.03C1246.99,-1426.7 1221,-1409.38 1199.75,-1395.21"/>
<polygon fill="black" stroke="black" points="1201.54,-1392.2 1191.28,-1389.57 1197.66,-1398.03 1201.54,-1392.2"/>
</g>
<!-- AVFormatContext&#45;&gt;av_find_best_stream -->
<g id="edge13" class="edge">
<title>AVFormatContext&#45;&gt;av_find_best_stream</title>
<path fill="none" stroke="black" d="M1276.61,-1435.87C1288.45,-1420.4 1313.78,-1381.94 1298.04,-1353.74 1290.25,-1339.8 1277.13,-1329.07 1263.44,-1321.03"/>
<polygon fill="black" stroke="black" points="1264.88,-1317.83 1254.42,-1316.13 1261.54,-1323.98 1264.88,-1317.83"/>
</g>
<!-- AVFormatContext&#45;&gt;avcodec_parameters_to_context -->
<g id="edge18" class="edge">
<title>AVFormatContext&#45;&gt;avcodec_parameters_to_context</title>
<path fill="none" stroke="black" d="M1276.42,-1435.94C1283.86,-1426.23 1297.25,-1407.57 1305.04,-1389.74 1321.39,-1352.3 1328.04,-1341.6 1328.04,-1300.74 1328.04,-1300.74 1328.04,-1300.74 1328.04,-1154.74 1328.04,-1096.11 1269.25,-1052.29 1226.28,-1028.1"/>
<polygon fill="black" stroke="black" points="1227.83,-1024.96 1217.38,-1023.24 1224.48,-1031.1 1227.83,-1024.96"/>
</g>
<!-- AVFormatContext&#45;&gt;av_read_frame -->
<g id="edge48" class="edge">
<title>AVFormatContext&#45;&gt;av_read_frame</title>
<path fill="none" stroke="black" d="M1282.88,-1436.19C1312.98,-1418.57 1390.04,-1367 1390.04,-1300.74 1390.04,-1300.74 1390.04,-1300.74 1390.04,-1154.74 1390.04,-1110.24 1410.25,-1061.85 1424.71,-1032.93"/>
<polygon fill="black" stroke="black" points="1427.89,-1034.39 1429.36,-1023.9 1421.67,-1031.19 1427.89,-1034.39"/>
</g>
<!-- AVCodec&#45;&gt;avcodec_alloc_context3 -->
<g id="edge15" class="edge">
<title>AVCodec&#45;&gt;avcodec_alloc_context3</title>
<path fill="none" stroke="black" d="M1238.82,-1220.03C1233.39,-1211.38 1223.63,-1195.86 1215.14,-1182.35"/>
<polygon fill="black" stroke="black" points="1218.08,-1180.46 1209.8,-1173.86 1212.16,-1184.18 1218.08,-1180.46"/>
</g>
<!-- AVCodecContext&#45;&gt;avcodec_parameters_to_context -->
<g id="edge17" class="edge">
<title>AVCodecContext&#45;&gt;avcodec_parameters_to_context</title>
<path fill="none" stroke="black" d="M1175.66,-1076C1176.52,-1066.64 1178.13,-1049.18 1179.52,-1034.13"/>
<polygon fill="black" stroke="black" points="1183.04,-1034.03 1180.47,-1023.75 1176.07,-1033.39 1183.04,-1034.03"/>
</g>
<!-- AVCodecContext&#45;&gt;avcodec_open2 -->
<g id="edge23" class="edge">
<title>AVCodecContext&#45;&gt;avcodec_open2</title>
<path fill="none" stroke="black" d="M1154.24,-1076.17C1142.06,-1072.56 1126.31,-1068.31 1112.04,-1065.74 1102.59,-1064.04 1032.5,-1064.83 1026.04,-1057.74 1005.08,-1034.74 1007.92,-1013.03 1026.04,-987.74 1043.47,-963.4 1072.73,-950.11 1101.22,-942.89"/>
<polygon fill="black" stroke="black" points="1102.29,-946.24 1111.25,-940.59 1100.72,-939.42 1102.29,-946.24"/>
</g>
<!-- AVCodecContext&#45;&gt;avcodec_send_packet -->
<g id="edge51" class="edge">
<title>AVCodecContext&#45;&gt;avcodec_send_packet</title>
<path fill="none" stroke="black" d="M1154.54,-1076.16C1142.33,-1072.51 1126.44,-1068.21 1112.04,-1065.74 1100.51,-1063.76 1014.99,-1066.32 1007.04,-1057.74 985.89,-1034.92 994.29,-1016.12 1007.04,-987.74 1028.96,-938.92 1048.3,-929.85 1097.04,-907.74 1140.78,-887.9 1260.56,-875.68 1349.6,-869.07"/>
<polygon fill="black" stroke="black" points="1350.03,-872.55 1359.75,-868.34 1349.52,-865.57 1350.03,-872.55"/>
</g>
<!-- AVCodecContext&#45;&gt;avcodec_receive_frame -->
<g id="edge53" class="edge">
<title>AVCodecContext&#45;&gt;avcodec_receive_frame</title>
<path fill="none" stroke="black" d="M1154.84,-1076.19C1142.59,-1072.5 1126.57,-1068.15 1112.04,-1065.74 1098.64,-1063.52 999.32,-1067.66 990.04,-1057.74 943.31,-1007.85 972.42,-952.56 1024.04,-907.74 1113.44,-830.12 1249.01,-803.32 1345.62,-794.42"/>
<polygon fill="black" stroke="black" points="1346.07,-797.89 1355.73,-793.54 1345.46,-790.92 1346.07,-797.89"/>
</g>
<!-- AVVAAPIDeviceContext&#45;&gt;av_hwdevice_ctx_init -->
<g id="edge21" class="edge">
<title>AVVAAPIDeviceContext&#45;&gt;av_hwdevice_ctx_init</title>
<path fill="none" stroke="black" d="M991.28,-1140.57C993.17,-1132.27 995.63,-1121.51 997.89,-1111.66"/>
<polygon fill="black" stroke="black" points="1001.31,-1112.38 1000.13,-1101.85 994.49,-1110.82 1001.31,-1112.38"/>
</g>
<!-- AVVAAPIDeviceContext&#45;&gt;AVCodecContext -->
<g id="edge22" class="edge">
<title>AVVAAPIDeviceContext&#45;&gt;AVCodecContext</title>
<path fill="none" stroke="black" stroke-dasharray="5,2" d="M1025.88,-1140.57C1062.09,-1127.02 1115.81,-1106.91 1147.93,-1094.89"/>
<polygon fill="black" stroke="black" points="1149.41,-1098.07 1157.55,-1091.29 1146.96,-1091.51 1149.41,-1098.07"/>
</g>
<!-- Window&#45;&gt;eglCreateWindowSurface -->
<g id="edge38" class="edge">
<title>Window&#45;&gt;eglCreateWindowSurface</title>
<path fill="none" stroke="black" d="M54.08,-1147.89C41.23,-1116.92 -6.89,-988.01 46.04,-907.74 53.64,-896.22 64.87,-887.63 77.19,-881.24"/>
<polygon fill="black" stroke="black" points="78.75,-884.37 86.32,-876.96 75.78,-878.04 78.75,-884.37"/>
</g>
<!-- EGLSurface&#45;&gt;eglMakeCurrent -->
<g id="edge45" class="edge">
<title>EGLSurface&#45;&gt;eglMakeCurrent</title>
<path fill="none" stroke="black" d="M186.72,-782.03C190.08,-773.63 196.04,-758.74 201.33,-745.51"/>
<polygon fill="black" stroke="black" points="204.73,-746.44 205.19,-735.86 198.23,-743.84 204.73,-746.44"/>
</g>
<!-- EGLContext&#45;&gt;eglMakeCurrent -->
<g id="edge44" class="edge">
<title>EGLContext&#45;&gt;eglMakeCurrent</title>
<path fill="none" stroke="black" d="M328.15,-853.89C311.3,-834.28 262.25,-777.18 233.57,-743.81"/>
<polygon fill="black" stroke="black" points="235.93,-741.17 226.75,-735.87 230.62,-745.73 235.93,-741.17"/>
</g>
<!-- EGLConfig&#45;&gt;eglCreateWindowSurface -->
<g id="edge37" class="edge">
<title>EGLConfig&#45;&gt;eglCreateWindowSurface</title>
<path fill="none" stroke="black" d="M153.75,-926.03C153.39,-917.71 152.77,-903.03 152.2,-889.9"/>
<polygon fill="black" stroke="black" points="155.7,-889.7 151.77,-879.86 148.7,-890 155.7,-889.7"/>
</g>
<!-- egl_visual_attr -->
<g id="node46" class="node">
<title>egl_visual_attr</title>
<text text-anchor="middle" x="159.04" y="-1080.04" font-family="Noto Sans" font-size="14.00">EGLConfig attributes</text>
</g>
<!-- egl_visual_attr&#45;&gt;eglChooseConfig -->
<g id="edge34" class="edge">
<title>egl_visual_attr&#45;&gt;eglChooseConfig</title>
<path fill="none" stroke="black" d="M158.77,-1076C158.4,-1066.64 157.71,-1049.18 157.12,-1034.13"/>
<polygon fill="black" stroke="black" points="160.6,-1033.6 156.71,-1023.75 153.61,-1033.88 160.6,-1033.6"/>
</g>
<!-- egl_context_attr -->
<g id="node47" class="node">
<title>egl_context_attr</title>
<text text-anchor="middle" x="472.04" y="-1080.04" font-family="Noto Sans" font-size="14.00">EGLContext attributes</text>
</g>
<!-- egl_context_attr&#45;&gt;eglCreateContext -->
<g id="edge42" class="edge">
<title>egl_context_attr&#45;&gt;eglCreateContext</title>
<path fill="none" stroke="black" d="M462.28,-1076C447.17,-1065.56 417.46,-1045.03 394.28,-1029.02"/>
<polygon fill="black" stroke="black" points="395.98,-1025.94 385.77,-1023.13 392.01,-1031.7 395.98,-1025.94"/>
</g>
<!-- gl_texture_1&#45;&gt;glEGLImageTargetTexture2DOES -->
<g id="edge65" class="edge">
<title>gl_texture_1&#45;&gt;glEGLImageTargetTexture2DOES</title>
<path fill="none" stroke="black" d="M1477.28,-225.79C1488.28,-217.22 1502.56,-206.09 1515.17,-196.27"/>
<polygon fill="black" stroke="black" points="1517.43,-198.94 1523.17,-190.04 1513.13,-193.42 1517.43,-198.94"/>
</g>
<!-- AVPacket&#45;&gt;avcodec_send_packet -->
<g id="edge50" class="edge">
<title>AVPacket&#45;&gt;avcodec_send_packet</title>
<path fill="none" stroke="black" d="M1447.81,-926.03C1448.76,-917.71 1450.43,-903.03 1451.93,-889.9"/>
<polygon fill="black" stroke="black" points="1455.42,-890.19 1453.08,-879.86 1448.47,-889.39 1455.42,-890.19"/>
</g>
<!-- VASurfaceID -->
<g id="node51" class="node">
<title>VASurfaceID</title>
<text text-anchor="middle" x="1504.04" y="-633.17" font-family="Noto Sans" font-size="14.00">VASurfaceID</text>
</g>
<!-- AVFrame&#45;&gt;VASurfaceID -->
<g id="edge55" class="edge">
<title>AVFrame&#45;&gt;VASurfaceID</title>
<path fill="none" stroke="black" stroke-dasharray="5,2" d="M1470.19,-710.02C1475.98,-697.68 1488.45,-671.1 1496.53,-653.88"/>
<polygon fill="black" stroke="black" points="1499.81,-655.12 1500.89,-644.58 1493.48,-652.14 1499.81,-655.12"/>
</g>
<!-- VASurfaceID&#45;&gt;vaExportSurfaceHandle -->
<g id="edge58" class="edge">
<title>VASurfaceID&#45;&gt;vaExportSurfaceHandle</title>
<path fill="none" stroke="black" d="M1502.87,-629.08C1500.33,-612.24 1495.93,-567.77 1514.04,-538 1522.06,-524.82 1534.74,-514.28 1547.72,-506.17"/>
<polygon fill="black" stroke="black" points="1549.81,-509.01 1556.69,-500.95 1546.29,-502.96 1549.81,-509.01"/>
</g>
<!-- VASurfaceID&#45;&gt;vaSyncSurface -->
<g id="edge56" class="edge">
<title>VASurfaceID&#45;&gt;vaSyncSurface</title>
<path fill="none" stroke="black" d="M1511.8,-629.15C1524.19,-618.41 1549.01,-596.89 1568.35,-580.13"/>
<polygon fill="black" stroke="black" points="1570.71,-582.72 1575.98,-573.52 1566.13,-577.43 1570.71,-582.72"/>
</g>
<!-- egl_image_attr -->
<g id="node53" class="node">
<title>egl_image_attr</title>
<text text-anchor="middle" x="1623.04" y="-367.8" font-family="Noto Sans" font-size="14.00">2x EGLImage attributes</text>
</g>
<!-- VADRMPRIMESurfaceDescriptor&#45;&gt;egl_image_attr -->
<g id="edge60" class="edge">
<title>VADRMPRIMESurfaceDescriptor&#45;&gt;egl_image_attr</title>
<path fill="none" stroke="black" stroke-dasharray="5,2" d="M1606.68,-414.69C1609.26,-408.03 1613.29,-397.65 1616.7,-388.85"/>
<polygon fill="black" stroke="black" points="1620.07,-389.84 1620.42,-379.26 1613.54,-387.31 1620.07,-389.84"/>
</g>
<!-- egl_image_attr&#45;&gt;eglCreateImageKHR -->
<g id="edge61" class="edge">
<title>egl_image_attr&#45;&gt;eglCreateImageKHR</title>
<path fill="none" stroke="black" d="M1623.61,-363.67C1624.14,-357.42 1624.95,-347.74 1625.74,-338.37"/>
<polygon fill="black" stroke="black" points="1629.25,-338.39 1626.6,-328.13 1622.27,-337.8 1629.25,-338.39"/>
</g>
<!-- EGLImage&#45;&gt;glEGLImageTargetTexture2DOES -->
<g id="edge66" class="edge">
<title>EGLImage&#45;&gt;glEGLImageTargetTexture2DOES</title>
<path fill="none" stroke="black" d="M1613.47,-233.33C1603.91,-224.9 1586.91,-209.91 1572.25,-196.99"/>
<polygon fill="black" stroke="black" points="1574.23,-194.07 1564.41,-190.08 1569.6,-199.32 1574.23,-194.07"/>
</g>
<!-- gl_texture_2&#45;&gt;glDrawArrays -->
<g id="edge68" class="edge">
<title>gl_texture_2&#45;&gt;glDrawArrays</title>
<path fill="none" stroke="black" d="M1545.04,-87.79C1545.04,-80.36 1545.04,-71.02 1545.04,-62.26"/>
<polygon fill="black" stroke="black" points="1548.54,-62.04 1545.04,-52.04 1541.54,-62.04 1548.54,-62.04"/>
</g>
</g>
</svg>
